<svg xmlns="http://www.w3.org/2000/svg" version="1.1" width="600px" height="600px" viewBox="0 0 200 200" style="overflow:hidden!important;"><defs id="SvgjsDefs14124"></defs><g id="svga-group-wrapper"><g id="svga-group-backs-single"></g><g id="svga-group-humanwrap-move" transform="matrix(1,0,0,1,-2,-6)"><g id="svga-group-humanwrap" transform="matrix(1,0,0,1,0,0)"><g id="svga-group-hair-back-move" transform="matrix(1,2.856368900253737e-18,-2.856368900253737e-18,1,0,0)"><g id="svga-group-hair-back" transform="matrix(1,0,0,1,0,0)"></g></g><g id="svga-group-humanbody-back"><path id="SvgjsPath24776" d="m170 180.3-27.3-6.9-18-9.9-1.5-28.2H76.8l-1.5 28.2-18 9.9-27.3 6.9-9.1 19.7-3 20h164.2l-3-20z" fill="#582812" stroke-width="none" opacity="1" stroke="none"></path><path id="SvgjsPath24777" d="m76.8 135.3-1.5 28.2-18 9.9-27.3 6.9-9.1 19.7-3 20h14.6v-20l2.7-17.7 23.8-6.4 24.7-8.3 3.5-32.3z" fill="#391200" stroke-width="none" opacity="1" stroke="none"></path></g><g id="svga-group-chinshadow-single"><path id="SvgjsPath24772" d="m121.5 149.1 2.2-3.8-.5-10H76.8l-.8 15.9 13.8 9.6h14.8z" fill="#2a0d00" stroke-width="none" opacity="1" stroke="none"></path></g><g id="svga-group-humanbody-front"><path id="SvgjsPath24778" d="m92.8 168.3 2 7.9 6.9 4.6s-8.5-3-8.7-3.6c-.2-.6-.2-8.9-.2-8.9z" fill="#391200" stroke-width="none" opacity="1" stroke="none"></path></g><g id="svga-group-clothes-single"><path id="SvgjsPath25023" d="m184.7 220-8.1-35.4-4.8-3.5-1.5-2-17.6-6.8-8.6-15.9-3.8-1.6-7.3-9-9.4-3.1.6 11-1.3 10.1-8.9 9.1-8.1 9.8-2.5 5-1.7-3.2-4.5-3.8-11.2-7.8-8.9-9.1-1.3-10.1.6-11-9.4 3.1-7.3 9-3.8 1.6-8.6 15.9-17.6 6.8-1.5 2-4.8 3.5-8.1 35.4z" fill="#ffb742" stroke-width="none" opacity="1" stroke="none"></path><path id="SvgjsPath25024" d="m134.2 188.8-15 3.8-9.9.2-.1-1.7 1.3-.1-.7-2.3-3.2.3-.1 2.3.8-.1v1.6h-2.1l2.1.2.1 5.9-.7 7.4 1.6 7.5.3 4.8 2.6-1-.3-5.1-2-6.6.9-7.3-.3-5.6 9.7.7 15.8-4.1 16-12.2 2-5.3-3.2 4.1-15.6 12.6zm-32.2 4.3-2.5-.2.2-1.8.6.1 1.2-2.2-3.3-2.3-2 1.9 1.2 2.3h.1v1.9l-1.5-.1-26-6.9-15.8-11 1.9-11L59 160l11 18.7 17.7 7.2-14.8-7.9-8.1-12.4 2.2-19.8-7.2 8.9-3.8 1.7-8.6 15.8-17.7 6.8-1.5 2-4.8 3.5-8.1 35.5h10.2l1.3-14.3 3.3-18.1 2.9 2.6 2.6 13.9 1.2 15.9v-16.2l-2.6-15.3-2.2-4.3 1.4-1.7 16.7-6L69 187.3l26.8 6.2 1.5-.1-.1 3.4 1.4 9.9s-3 9.8-2.8 9.9c.3.2 1.7 2.8 1.8 2.6.1-.3 3.5-12.5 3.5-12.5l-1.9-10.4.3-3.1 2.5-.1zm-26.2-39.4.6-10.8-4 5.1-.7 8.4 5.4 7.5-1.3-10.2zm49.1 11 6.7-6.9-.7-10.8-7.3-4.3.6 11-1.3 10.2-8.9 9.1-8.1 9.8-2.5 5 6.5-8.5 15-14.6zm-18.1 22.4 22.9-5 11.2-13.4 3.2-12.3-3.8-1.7-2.4 13-8.6 13.1-22.5 6.3zm56.5 9.7.8 21.6.5-20.4 4.5-13.1-5.8 11.9z" fill="#f0a326" stroke-width="none" opacity="1" stroke="none"></path><path id="SvgjsPath25025" d="m137.4 165.7 1.2-10.5-6-6.2 1.4 10.3-10.3 16.1-14 8.7 18.6-4.5 9.1-13.9zm13.6 6.2-6.2-10.1c.2.6-2.1 9.5-2.1 9.5l-10.3 12.4-15.5 7.2 16.7-3.1 15.7-12.6 1.7-3.3zm24.8 14-3.7-1.9-2.3 5.6 3.9 9.3 3.9 19.2 4.1.2-5.9-32.4zm-7.7-6.5-14.4-4.8-2.5 5-8.3 5.6 19.4.6 4.5 1.2 3.7-5.6-2.4-2zM85 175.6l-10.1-10.3-3.7-7.4-1.4.6 3.1 11.6 11.6 9.1 14.4 5.6 3.1 3.9-3.3-5.6-13.7-7.5zm43.1-12.5-16.7 16.1-6.6 8.5 13.4-11.6 9.9-13z" fill="#ffc15b" stroke-width="none" opacity="1" stroke="none"></path></g><g id="svga-group-head" transform="matrix(1,2.856368900253737e-18,-2.856368900253737e-18,1,0,0)"><g id="svga-group-ears-left-move" transform="matrix(1,0,0,1,0,0)"><g id="svga-group-ears-left" transform="matrix(1,0,0,1,0,0)"><path id="SvgjsPath24676" d="M63.1 91.8s-6-.7-10.6-3.7c0 0-3.5 9.4-4 14.4 0 0 6.7 13 10 18.5 0 0 5.2-.7 6.3-1.4l1.4-8.4-3.1-19.4z" fill="#582812" stroke-width="none" opacity="1" stroke="none"></path><path id="SvgjsPath24677" d="M53.3 90c-.2-.4-.8-1.9-.8-1.9 5.2.4 10.7 1.4 10.7 1.4l3 21.6-1.4 8.4c-1.1.7-6.3 1.4-6.3 1.4-.6-1-1.3-2.3-2.1-3.6l2.6 1 3-1.6s.7-11.2.5-11.5c-.1-.3-9-14.8-9.2-15.2z" fill="#491c08" stroke-width="none" opacity="1" stroke="none"></path><path id="SvgjsPath24678" d="m50.3 100.9 2.8-5.5 5.2 6.8 2.2 9.5-1.4 1.9-4.3-7.6 1-4.7-2.6-4z" fill="#391200" stroke-width="none" opacity="1" stroke="none"></path></g></g><g id="svga-group-ears-right-move" transform="matrix(1,0,0,1,0,0)"><g id="svga-group-ears-right" transform="matrix(1,0,0,1,0,0)"><path id="SvgjsPath24679" d="M136.9 91.8s6-.7 10.6-3.7c0 0 3.5 9.4 4 14.4 0 0-6.7 13-10 18.5 0 0-5.2-.7-6.3-1.4l-1.4-8.4 3.1-19.4z" fill="#582812" stroke-width="none" opacity="1" stroke="none"></path><path id="SvgjsPath24680" d="M146.7 90c.2-.4.8-1.9.8-1.9-5.2.4-10.7 1.4-10.7 1.4l-3 21.6 1.4 8.4c1.1.7 6.3 1.4 6.3 1.4.6-1 1.3-2.3 2.1-3.6l-2.6 1-3-1.6s-.7-11.2-.5-11.5c.1-.3 9-14.8 9.2-15.2z" fill="#491c08" stroke-width="none" opacity="1" stroke="none"></path><path id="SvgjsPath24681" d="m149.7 100.9-2.8-5.5-5.2 6.8-2.2 9.5 1.4 1.9 4.3-7.6-1-4.7 2.6-4z" fill="#391200" stroke-width="none" opacity="1" stroke="none"></path></g></g><g id="svga-group-faceshape-wrap" transform="matrix(1,0,0,1,0,0)"><g id="svga-group-faceshape-single"><path id="SvgjsPath24758" d="M138.1 60c-6.9-11.6-19.7-19.5-19.7-19.5-7.2-1.5-18.4-2.3-18.4-2.3s-11.1.8-18.4 2.3c0 0-12.8 7.9-19.7 19.5 0 0-5.1 14.5-5.3 24.8l4.9 33.9 14.2 24.8 16.9 11.7h14.9l16.9-11.7 14.2-24.8 4.9-33.9c-.3-10.3-5.4-24.8-5.4-24.8z" fill="#582812" stroke-width="none" opacity="1" stroke="none"></path><path id="SvgjsPath24759" d="m92.7 152.7-14.6-12.3s-11.4-20.9-11.8-21.7c-.4-.9-5-34.3-5-34.3.2-4.8 4.5-21.5 5-22.2 2.1-3.2 16.5-18 16.5-18l17.1-4.1 18.5.4c-7.2-1.5-18.4-2.3-18.4-2.3s-11.1.8-18.4 2.3c0 0-12.8 7.9-19.7 19.5 0 0-5.1 14.5-5.3 24.8l4.9 33.9 14.2 24.8 16.9 11.7h14.9l16.9-11.7-18 10.4-13.7-1.2z" fill="#391200" stroke-width="none" opacity="1" stroke="none"></path></g></g><g id="svga-group-mouth-single-move" transform="matrix(1,0,0,1,0,0)"><g id="svga-group-mouth-single" transform="matrix(1,0,0,1,0,0)"><path id="SvgjsPath24850" d="m91.05 134.5 3.1 2.2 5.6-.2 6.6.6 2.7-2-2.9 1-6.5-.5-5.5.2z" fill="#391200" stroke-width="none" opacity="1" transform="translate(0 2)" stroke="none"></path><path id="SvgjsPath24851" d="m89.17 128.58-1.77 2.59 7.88-2.14 2.49 1.51 3.83.27 2.37-1.45 9.7 2.06-1.77-1.92-8.85-5.39-3.26.99-2.89-1.13z" fill="#da7c87" stroke-width="none" opacity="1" transform="translate(0 2)" stroke="none"></path><path id="SvgjsPath24852" d="m85.3 129.9 2.3 1.9 7.5-2.4 2.8 1.6 3.7.1 2.6-1.5 9.5 2.3 1.87-1.35-2.07.45-9.6-2.7-2.5 1.9-3.5-.1-2.7-2-7.8 2.7z" fill="#cb5f6c" stroke-width="none" opacity="1" transform="translate(0 2)" stroke="none"></path></g></g><g id="svga-group-eyes-left-move" transform="matrix(1,0,0,1,0,0)"><g id="svga-group-eyes-left" transform="matrix(1,0,0,1,0,0)"><g id="svga-group-eyesback-left"><path id="SvgjsPath24716" d="m91.1 97-4.5-5.3-10.7-.6-7.7 4.2 11.5 3.8z" fill="#ffffff" stroke-width="none" opacity="1"></path></g><g id="svga-group-eyesiriswrapper-left" transform="matrix(1,0,0,1,0,0)"><g id="svga-group-eyesiriscontrol-left" transform="matrix(1,0,0,1,0,0)"><g id="svga-group-eyesiris-left" transform="matrix(1,0,0,1,0,0)"><path id="SvgjsPath24793" d="m82.2 100.2-5.5-2-1-5.8 4.5-3.8 5.5 2.1 1 5.7z" fill="#681711" stroke-width="none" opacity="1"></path><path id="SvgjsPath24794" d="m77.3 95.7.8-4 3.9-1.2 3 2.7-.8 4-3.9 1.2z" fill="#000000" stroke-width="none" opacity="1"></path><path id="SvgjsPath24795" d="m77.7 91.3 3.5 4-1.5-5.9z" fill="#ffffff" stroke-width="none" opacity="1"></path></g></g></g><g id="svga-group-eyesfront-left"><path id="SvgjsPath24724" d="M67.1 89.3v11.9l7.9 8.4h11.2l7.9-8.4V89.3l-7.9-8.4H75l-7.9 8.4zm1.1 6 7.7-4.2 10.7.6 4.5 5.3-11.5 2.1-11.4-3.8z" fill="#582812" stroke-width="none" opacity="1" stroke="none"></path><path id="SvgjsPath24725" d="m67.7 95.5 8-4.8 11.4.1 6.6 6.7-3 2.9-8.1 3.2 6.5-3.8 1.9-2.7-4.3-5-11.1-.4z" fill="#391200" stroke-width="none" opacity="1" stroke="none"></path></g></g></g><g id="svga-group-eyes-right-move" transform="matrix(1,0,0,1,0,0)"><g id="svga-group-eyes-right" transform="matrix(1,0,0,1,0,0)"><g id="svga-group-eyesback-right"><path id="SvgjsPath24717" d="m108.9 97 4.5-5.3 10.7-.6 7.7 4.2-11.5 3.8z" fill="#ffffff" stroke-width="none" opacity="1"></path></g><g id="svga-group-eyesiriswrapper-right" transform="matrix(1,0,0,1,0,0)"><g id="svga-group-eyesiriscontrol-right" transform="matrix(1,0,0,1,0,0)"><g id="svga-group-eyesiris-right" transform="matrix(1,0,0,1,0,0)"><path id="SvgjsPath24796" d="m119.8 100.2-5.5-2-1-5.8 4.5-3.8 5.5 2.1 1 5.7z" fill="#681711" stroke-width="none" opacity="1"></path><path id="SvgjsPath24797" d="m115 95.7.8-4 3.9-1.2 3 2.7-.8 4-3.9 1.2z" fill="#000000" stroke-width="none" opacity="1"></path><path id="SvgjsPath24798" d="m115.3 91.3 3.6 4-1.5-5.9z" fill="#ffffff" stroke-width="none" opacity="1"></path></g></g></g><g id="svga-group-eyesfront-right"><path id="SvgjsPath24726" d="M125 80.8h-11.2l-7.9 8.4v11.9l7.9 8.4H125l7.9-8.4V89.3l-7.9-8.5zm-4.7 18.3L108.9 97l4.5-5.3 10.7-.6 7.7 4.2-11.5 3.8z" fill="#582812" stroke-width="none" opacity="1" stroke="none"></path><path id="SvgjsPath24729" d="m132.3 95.5-8-4.8-11.4.1-6.6 6.7 3 2.9 8.1 3.2-6.5-3.8-1.9-2.7 4.3-5 11.1-.4z" fill="#391200" stroke-width="none" opacity="1" stroke="none"></path></g></g></g><g id="svga-group-facehighlight-single"></g><g id="svga-group-eyebrows-left-move" transform="matrix(1,0,0,1,0,0)"><g id="svga-group-eyebrows-left-rotate" transform="matrix(1,1.7453292519943295e-9,-1.7453292519943295e-9,1,1.424188695864359e-7,-1.384918704161464e-7)"><g id="svga-group-eyebrows-left" transform="matrix(1,0,0,1,0,0)"><path id="SvgjsPath24639" d="m90.9 76.7 1.1 3.7-2.7 4.8L78 86.5l-11.3-2.9.6-1.5 11.1-1.4 9.4-3.2z" fill="#2a232b" stroke-width="none" opacity="1"></path><path id="SvgjsPath24640" d="m88 85.3-1.3.2-.9-7.3.4-.1 1.8 7.2zm-5.1-6.1 2.3 6.5-1.2.1-1.2-6.6h.1zm6.4-2.1c.1 2.2.1 5.7.2 7.8l-.2.3-1.1.1.8-8.1.3-.1zm-18.8 4.6h.3c1.1 1.2 2.4 2.7 3.5 3.8l-1.4-.4-2.4-3.4zm-2.5 1 1.8 1.7-1-.2-.8-1.5zm12.6-2.8 1-.3c.5 1.9 1.2 4.7 1.6 6.3l-1.3.1-1.3-6.1zm-2.9.9 3.5 5.3-1.3.2-2.7-5.4.5-.1z" fill="#1b141c" stroke-width="none" opacity="1"></path></g></g></g><g id="svga-group-eyebrows-right-move" transform="matrix(1,0,0,1,0,0)"><g id="svga-group-eyebrows-right-rotate" transform="matrix(1,1.7453292519943295e-9,-1.7453292519943295e-9,1,1.424188695864359e-7,-2.1057397248114285e-7)"><g id="svga-group-eyebrows-right" transform="matrix(1,0,0,1,0,0)"><path id="SvgjsPath24641" d="m109.1 76.7-1.1 3.7 2.7 4.8 11.3 1.3 11.3-2.9-.6-1.5-11.1-1.4-9.4-3.2z" fill="#2a232b" stroke-width="none" opacity="1"></path><path id="SvgjsPath24642" d="m112 85.3 1.3.2.9-7.3-.4-.1-1.8 7.2zm5.1-6.1-2.3 6.5 1.2.1 1.2-6.6h-.1zm-6.4-2.1c-.1 2.2-.1 5.7-.2 7.8l.2.3 1.1.1-.8-8.1-.3-.1zm18.8 4.6h-.3c-1.1 1.2-2.4 2.7-3.5 3.8l1.4-.4 2.4-3.4zm2.5 1-1.8 1.7 1-.2.8-1.5zm-12.6-2.8-1-.3c-.5 1.9-1.2 4.7-1.6 6.3l1.4.2 1.2-6.2zm2.9.9-3.5 5.3 1.3.2 2.7-5.4-.5-.1z" fill="#1b141c" stroke-width="none" opacity="1"></path></g></g></g><g id="svga-group-beardwrap" transform="matrix(1,0,0,1,0,0)"><g id="svga-group-beard-single-move" transform="matrix(1,0,0,1,0,0)"><g id="svga-group-beard-single" transform="matrix(1,0,0,1,0,0)"><path id="SvgjsPath24629" d="m83.1 148.8 8 11.7 9.1 1.6 9.3-2.3 8.1-11.6-1.6-1.9-8-1.3H91.9l-6.1 1.6z" fill="#2a232b" stroke-width="none" opacity="1"></path><path id="SvgjsPath24630" d="M116 146.3h-.2l-7.4 11.8-.7.2 2.5-10.5-4.2 11-2.3.7-.7-4.4-.4 4.7-1.6.5-1.9-8.2.2 8.1-3.1-1.4-3.6-11.3 1.6 10.4-1.5-.6-5.2-11.3-1.7.5-2.7 2.2 8 11.7 9 1.6 9.3-2.4 8.1-11.6-1.5-1.7zM96.7 145h-2.2c.7 2.6 3 11.1 3.1 11.7-.2-.6-.7-8.9-.9-11.7zm6.1 0h-1.7c.1 2.9.3 10.5.3 10.1 0-.5 1-7.5 1.4-10.1zm5.2 0h-2.2l-.6 10.3 3.3-10.2-.5-.1z" fill="#1b141c" stroke-width="none" opacity="1"></path></g></g></g><g id="svga-group-mustache-single-move" transform="matrix(1,0,0,1,0,0)"><g id="svga-group-mustache-single" transform="matrix(1,0,0,1,0,0)"><path id="SvgjsPath24866" d="m99.8 120.7-.1 2.5-.5 1.3-10.3-.5-5.5-.5v-.7l9.5-1.9 6.9-.2zm1.1 0 .1 2.5.5 1.3 10.3-.5 5.6-.5v-.7l-9.6-1.9-6.9-.2z" fill="#2a232b" stroke-width="none" opacity="1"></path><path id="SvgjsPath24867" d="m99.1 121.2-1.8 1.5-.9 1.2 1.8-1.4.9-1.3zm-1.3.2s-1.5 1.2-1.6 1.2-3 1.2-3 1.2l2.3-1.2 2.3-1.2zm-3-.1-1.5 1.3-2.9 1.2 2.5-1.4 1.9-1.1zm1.5-.1-1.6 1 2.8-1h-1.2zm-3.8.4-2.9.9-2.1 1.1 2.6-.9 2.4-1.1zm-4.3.6c-.2.1-1.7.5-1.7.5l-.9.5 1.8-.5.8-.5zm-4.3.9 1.7-.4-.9.5-.8-.1zm17.7-1.9 1.8 1.5.9 1.2-1.8-1.4-.9-1.3zm1.3.2s1.5 1.2 1.6 1.2 3 1.2 3 1.2l-2.3-1.2-2.3-1.2zm3-.1 1.5 1.3 2.9 1.2-2.5-1.4-1.9-1.1zm-1.5-.1 1.6 1-2.8-1h1.2zm3.8.4 2.9.9 2.1 1.1-2.6-.9-2.4-1.1zm4.4.6c.2.1 1.7.5 1.7.5l.9.5-1.8-.5-.8-.5zm4.2.9-1.7-.4.9.5.8-.1z" fill="#3a353a" stroke-width="none" opacity="1"></path></g></g><g id="svga-group-nose-single-move" transform="matrix(1,0,0,1,0,0)"><g id="svga-group-nose-single" transform="matrix(1,0,0,1,0,0)"><path id="SvgjsPath24826" d="m100.22 120.13-3.87-2.61-3.17 1.74-2.29-3.79 2.76-4.04 2.7-10.52-1.19-5.23 2.21-4.67 2.77-1.1 2.85 1.66 1.59 4.51-1.27 4.03 1.51 4.7 1.97 6.86 2.61 3.88-2.29 3.71-3.48-1.18z" fill="#582812" stroke-width="none" opacity="1" transform="translate(0 1)" stroke="none"></path><path id="SvgjsPath24827" d="m106.93 111.02-2.82 2.43 2.82-1.11 1.82 3.03-2.02 3.13-2.12-1.21.71-1.62-5.15 4.14-5.15-4.14.7 1.62-2.12 1.21-2.02-3.13 1.82-3.03 2.83 1.11-2.03-2.8 2.77-9.73-1.07-4.59 2.14-5.34-3.15-5.09 1.89 4.84-2.26 4.71 1.13 4.84L93 111.61l-2.73 3.96 2.83 4.64 3.33-1.71 2.93 2.42h1.62l2.92-2.42 3.34 1.71 2.83-4.64z" fill="#391200" stroke-width="none" opacity="1" transform="translate(0 1)" stroke="none"></path><path id="SvgjsPath24828" d="m104.63 87.03-2.01 4.21 1.57 4.84-1.19 3.96 1.82 4.77-1.07-4.77 1.2-4.03-1.64-4.9z" fill="#391200" stroke-width="none" opacity="1" transform="translate(0 1)" stroke="none"></path><path id="SvgjsPath24829" d="M101.47 114.77s2.23-4.26 2.23-4.55c0-.29-1.65-9.88-1.65-9.88l.48-5.14-.97-3.58-1.65 9.4v13.27l1.56.48z" fill="#602f18" stroke-width="none" opacity="1" transform="translate(0 1)" stroke="none"></path><path id="SvgjsPath24830" d="m93.1 120.21 3.33-1.71 2.93 2.42h1.62l2.92-2.42 3.34 1.71 2.83-4.64-3.14-4.55-2.82 2.43 2.82-1.11 1.82 3.03-2.02 3.13-2.12-1.21.71-1.62-5.15 4.14-5.15-4.14.7 1.62-2.12 1.21-2.02-3.13 1.82-3.03 2.83 1.11-2.03-2.8-1.2.96-2.73 3.96z" fill="#391200" stroke-width="none" opacity="1" transform="translate(0 1)" stroke="none"></path></g></g><g id="svga-group-hair-front" transform="matrix(1,0,0,1,0,0)"><path id="SvgjsPath24879" d="M62.9 41.7s-4.18 15.15-2.78 24.05l8.13-8.96L76 53.6l23.99 4.82 27.09-4.24 7.41 4.69s4.91 8.72 5.61 8.72-.8-20.7-.8-20.7l-2.5-6.2-3.1.7-2.2-3-3.4-.5c0-.2-1.8 0-2.1.3-.4.4-1.9-1.5-1.9-1.5l-1.6 1.4-1.1-1.5-1.9.5-1.9-2.1-1.4 1.4-2.3-1.2-2.2 1-1.9-2.5-1.8 1.6-2.5-1.8-1.7 1.3-2.4-1.4-2.9 1.9L97 32.2l-1.6 3.1-2-2.6-2.2 1.7-3.1-1.7-1 2.9-1.7-2.1-1.4 2.6-2.5-2.4-1.6 2.8-2.4-1.6-1.5 2.2-1.7-2.2-1.2 1.9-1.7-1.2-1.2 2.4-1.9-.7-1.7 3.6-1.7-1-.2 1.9h-1.8v-.1z" fill="#2a232b" stroke-width="none" opacity="1" stroke="none"></path><path id="SvgjsPath24880" d="m137.53 57.88-4.33-12.2-2.63 7.57-1.54-5.1-2.16 3.86-1.54-3.4-1.85 2.94-1.24-3.71-2.47 3.71-1.85-4.17-2.32 3.55-1.54-4.48-2.63 3.71-2.16-2.78-2.47 6.49-1.39-5.56-2.32 2.94-1.54-4.79-2.16 4.79-1.7-5.72-3.09 5.1-2.94-5.56-1.39 6.03-3.24-6.49L85.47 50l-4.76-14.91-.81 1.41-2.4-1.6-1.5 2.2-1.7-2.2-1.2 1.9-1.7-1.2-1.2 2.4-1.9-.7-1.7 3.6-1.7-1-.2 1.9h-1.8v-.1s-4.18 15.15-2.78 24.05l8.13-8.96L76 53.6l23.99 4.82 27.09-4.24 7.41 4.69s4.91 8.72 5.61 8.72c.61 0-.45-15.71-.73-19.76l-1.84 10.05z" fill="#1b141c" stroke-width="none" opacity="1" stroke="none"></path><path id="SvgjsPath24881" d="m98.5 35.3.41 2.49 1.29-3.61z" fill="#1b141c" stroke-width="none" opacity="1" stroke="none"></path><path id="SvgjsPath24882" d="m95.4 35.3-2-2.6-2.2 1.7-3.1-1.7-1 2.9-1.22-1.51 2.68 6.17 2.01-3.7 1.7 3.7 1.39-4.01 2.16 3.09 2.68-4.04-1.5-3.1z" fill="#1b141c" stroke-width="none" opacity="1" stroke="none"></path><path id="SvgjsPath24883" d="m103.85 36.71 2.01-1.39 1.24 3.55 2.47-1.54 1.54 2.16 2.32-2.47 1.39 2.47 1.55-2.32 1.08 2.01 1.85-.92 1.7 1.39.53-2.87-.13-.18-1.9.5-1.9-2.1-1.4 1.4-2.3-1.2-2.2 1-1.9-2.5-1.8 1.6-2.5-1.8-1.7 1.3-.62-.36z" fill="#1b141c" stroke-width="none" opacity="1" stroke="none"></path></g><g id="svga-group-glasses-single-move" transform="matrix(1,0,0,1,0,0)"><g id="svga-group-glasses-single" transform="matrix(1,0,0,1,0,0)"></g></g></g></g></g><rect id="svga-credit-rect" width="200" height="15" x="0" y="185" fill="#ecf0f1" opacity="0.5" style="display: none;"></rect><text id="svga-credit-text" font-family="Avenir Next, Roboto, Helvetica, Arial, sans-serif" font-size="10px" text-anchor="start" font-weight="400" size="10px" anchor="start" weight="400" fill="#333333" x="33.40447998046875" y="182.60824704170227" style="display: none;"><tspan id="SvgjsTspan14177" dy="13" x="33.40447998046875">Created on AvatarMaker.com</tspan></text></g></svg>